<mxfile host="65bd71144e">
    <diagram id="VSO96R-IJgMFWZQz3Wj2" name="Page-1">
        <mxGraphModel dx="1116" dy="782" grid="1" gridSize="10" guides="1" tooltips="1" connect="1" arrows="1" fold="1" page="1" pageScale="1" pageWidth="850" pageHeight="1100" math="0" shadow="0">
            <root>
                <mxCell id="0"/>
                <mxCell id="1" parent="0"/>
                <mxCell id="2" value="&lt;b style=&quot;font-weight: normal&quot; id=&quot;docs-internal-guid-1bc7f905-7fff-f65b-f8e8-6c793564f768&quot;&gt;&lt;span style=&quot;border: none ; display: inline-block ; overflow: hidden ; width: 425px ; height: 888px&quot;&gt;&lt;img src=&quot;https://lh5.googleusercontent.com/aRz5h66Aweqq_pYiYLAelIjPUdvKUqc_JyhSoeGtJe7Ke_zmLa2Fd5uymuIwghT2E1s4qBxhqamhsEZTOmhTNO596Sz6MP2_N9zAXcXfezAwwWZfq7jA2o3e3Lko8gl6gJTavv33&quot; width=&quot;425&quot; height=&quot;888&quot; style=&quot;margin-left: 0px ; margin-top: 0px&quot;&gt;&lt;/span&gt;&lt;/b&gt;" style="text;whiteSpace=wrap;html=1;" parent="1" vertex="1">
                    <mxGeometry x="500" y="20" width="450" height="910" as="geometry"/>
                </mxCell>
                <mxCell id="jqhfypBR-FUaWaJ31-60-2" value="Detect green traffic light" style="rounded=1;whiteSpace=wrap;html=1;" vertex="1" parent="1">
                    <mxGeometry x="20" y="100" width="120" height="60" as="geometry"/>
                </mxCell>
                <mxCell id="jqhfypBR-FUaWaJ31-60-3" value="Moving" style="rounded=1;whiteSpace=wrap;html=1;" vertex="1" parent="1">
                    <mxGeometry x="170" y="100" width="120" height="60" as="geometry"/>
                </mxCell>
                <mxCell id="jqhfypBR-FUaWaJ31-60-4" value="Nothing" style="rounded=1;whiteSpace=wrap;html=1;" vertex="1" parent="1">
                    <mxGeometry x="320" y="100" width="120" height="60" as="geometry"/>
                </mxCell>
                <mxCell id="jqhfypBR-FUaWaJ31-60-6" value="Detect red traffic light" style="rounded=1;whiteSpace=wrap;html=1;" vertex="1" parent="1">
                    <mxGeometry x="20" y="180" width="120" height="60" as="geometry"/>
                </mxCell>
                <mxCell id="jqhfypBR-FUaWaJ31-60-7" value="Moving" style="rounded=1;whiteSpace=wrap;html=1;" vertex="1" parent="1">
                    <mxGeometry x="170" y="180" width="120" height="60" as="geometry"/>
                </mxCell>
                <mxCell id="jqhfypBR-FUaWaJ31-60-8" value="Stop" style="rounded=1;whiteSpace=wrap;html=1;" vertex="1" parent="1">
                    <mxGeometry x="320" y="180" width="120" height="60" as="geometry"/>
                </mxCell>
                <mxCell id="jqhfypBR-FUaWaJ31-60-9" value="Car stopped in front" style="rounded=1;whiteSpace=wrap;html=1;" vertex="1" parent="1">
                    <mxGeometry x="20" y="260" width="120" height="60" as="geometry"/>
                </mxCell>
                <mxCell id="jqhfypBR-FUaWaJ31-60-10" value="Moving" style="rounded=1;whiteSpace=wrap;html=1;" vertex="1" parent="1">
                    <mxGeometry x="170" y="260" width="120" height="60" as="geometry"/>
                </mxCell>
                <mxCell id="jqhfypBR-FUaWaJ31-60-11" value="Stop" style="rounded=1;whiteSpace=wrap;html=1;" vertex="1" parent="1">
                    <mxGeometry x="320" y="260" width="120" height="60" as="geometry"/>
                </mxCell>
                <mxCell id="jqhfypBR-FUaWaJ31-60-15" value="Nothing" style="rounded=1;whiteSpace=wrap;html=1;" vertex="1" parent="1">
                    <mxGeometry x="20" y="340" width="120" height="60" as="geometry"/>
                </mxCell>
                <mxCell id="jqhfypBR-FUaWaJ31-60-16" value="Doesn't have path" style="rounded=1;whiteSpace=wrap;html=1;" vertex="1" parent="1">
                    <mxGeometry x="170" y="340" width="120" height="60" as="geometry"/>
                </mxCell>
                <mxCell id="jqhfypBR-FUaWaJ31-60-17" value="Calculate path" style="rounded=1;whiteSpace=wrap;html=1;" vertex="1" parent="1">
                    <mxGeometry x="320" y="340" width="120" height="60" as="geometry"/>
                </mxCell>
            </root>
        </mxGraphModel>
    </diagram>
    <diagram id="hWNmwXFse2HtUPb-ddUF" name="Page-2">
        <mxGraphModel dx="1116" dy="782" grid="1" gridSize="10" guides="1" tooltips="1" connect="1" arrows="1" fold="1" page="1" pageScale="1" pageWidth="850" pageHeight="1100" math="0" shadow="0">
            <root>
                <mxCell id="6Bc9b5hqLwxig0NFzW65-0"/>
                <mxCell id="6Bc9b5hqLwxig0NFzW65-1" parent="6Bc9b5hqLwxig0NFzW65-0"/>
                <mxCell id="gGoMFtv6244P30nldpAz-0" value="CarAgent" style="swimlane;fontStyle=1;align=center;verticalAlign=top;childLayout=stackLayout;horizontal=1;startSize=26;horizontalStack=0;resizeParent=1;resizeParentMax=0;resizeLast=0;collapsible=1;marginBottom=0;fillColor=none;" vertex="1" parent="6Bc9b5hqLwxig0NFzW65-1">
                    <mxGeometry x="110" y="50" width="160" height="320" as="geometry"/>
                </mxCell>
                <mxCell id="gGoMFtv6244P30nldpAz-1" value="pos: tuple(int, int)&#10;direction: int&#10;destination: tuple(int, int)&#10;blinkers: tuple(bool, bool)&#10;path: list(tuple(int, int))" style="text;strokeColor=none;fillColor=none;align=left;verticalAlign=top;spacingLeft=4;spacingRight=4;overflow=hidden;rotatable=0;points=[[0,0.5],[1,0.5]];portConstraint=eastwest;" vertex="1" parent="gGoMFtv6244P30nldpAz-0">
                    <mxGeometry y="26" width="160" height="164" as="geometry"/>
                </mxCell>
                <mxCell id="gGoMFtv6244P30nldpAz-2" value="" style="line;strokeWidth=1;fillColor=none;align=left;verticalAlign=middle;spacingTop=-1;spacingLeft=3;spacingRight=3;rotatable=0;labelPosition=right;points=[];portConstraint=eastwest;" vertex="1" parent="gGoMFtv6244P30nldpAz-0">
                    <mxGeometry y="190" width="160" height="8" as="geometry"/>
                </mxCell>
                <mxCell id="gGoMFtv6244P30nldpAz-3" value="step(): None&#10;move(): None&#10;findPath(): bool" style="text;strokeColor=none;fillColor=none;align=left;verticalAlign=top;spacingLeft=4;spacingRight=4;overflow=hidden;rotatable=0;points=[[0,0.5],[1,0.5]];portConstraint=eastwest;" vertex="1" parent="gGoMFtv6244P30nldpAz-0">
                    <mxGeometry y="198" width="160" height="122" as="geometry"/>
                </mxCell>
                <mxCell id="gGoMFtv6244P30nldpAz-8" value="Classname" style="swimlane;fontStyle=1;align=center;verticalAlign=top;childLayout=stackLayout;horizontal=1;startSize=26;horizontalStack=0;resizeParent=1;resizeParentMax=0;resizeLast=0;collapsible=1;marginBottom=0;fillColor=none;" vertex="1" parent="6Bc9b5hqLwxig0NFzW65-1">
                    <mxGeometry x="580" y="70" width="160" height="86" as="geometry"/>
                </mxCell>
                <mxCell id="gGoMFtv6244P30nldpAz-9" value="+ field: type" style="text;strokeColor=none;fillColor=none;align=left;verticalAlign=top;spacingLeft=4;spacingRight=4;overflow=hidden;rotatable=0;points=[[0,0.5],[1,0.5]];portConstraint=eastwest;" vertex="1" parent="gGoMFtv6244P30nldpAz-8">
                    <mxGeometry y="26" width="160" height="26" as="geometry"/>
                </mxCell>
                <mxCell id="gGoMFtv6244P30nldpAz-10" value="" style="line;strokeWidth=1;fillColor=none;align=left;verticalAlign=middle;spacingTop=-1;spacingLeft=3;spacingRight=3;rotatable=0;labelPosition=right;points=[];portConstraint=eastwest;" vertex="1" parent="gGoMFtv6244P30nldpAz-8">
                    <mxGeometry y="52" width="160" height="8" as="geometry"/>
                </mxCell>
                <mxCell id="gGoMFtv6244P30nldpAz-11" value="+ method(type): type" style="text;strokeColor=none;fillColor=none;align=left;verticalAlign=top;spacingLeft=4;spacingRight=4;overflow=hidden;rotatable=0;points=[[0,0.5],[1,0.5]];portConstraint=eastwest;" vertex="1" parent="gGoMFtv6244P30nldpAz-8">
                    <mxGeometry y="60" width="160" height="26" as="geometry"/>
                </mxCell>
                <mxCell id="gGoMFtv6244P30nldpAz-12" value="TrafficLightAgent" style="swimlane;fontStyle=1;align=center;verticalAlign=top;childLayout=stackLayout;horizontal=1;startSize=26;horizontalStack=0;resizeParent=1;resizeParentMax=0;resizeLast=0;collapsible=1;marginBottom=0;fillColor=none;" vertex="1" parent="6Bc9b5hqLwxig0NFzW65-1">
                    <mxGeometry x="320" y="50" width="160" height="194" as="geometry"/>
                </mxCell>
                <mxCell id="gGoMFtv6244P30nldpAz-13" value="greenLight: bool&#10;yellowLight: bool&#10;redLight: bool" style="text;strokeColor=none;fillColor=none;align=left;verticalAlign=top;spacingLeft=4;spacingRight=4;overflow=hidden;rotatable=0;points=[[0,0.5],[1,0.5]];portConstraint=eastwest;" vertex="1" parent="gGoMFtv6244P30nldpAz-12">
                    <mxGeometry y="26" width="160" height="134" as="geometry"/>
                </mxCell>
                <mxCell id="gGoMFtv6244P30nldpAz-14" value="" style="line;strokeWidth=1;fillColor=none;align=left;verticalAlign=middle;spacingTop=-1;spacingLeft=3;spacingRight=3;rotatable=0;labelPosition=right;points=[];portConstraint=eastwest;" vertex="1" parent="gGoMFtv6244P30nldpAz-12">
                    <mxGeometry y="160" width="160" height="8" as="geometry"/>
                </mxCell>
                <mxCell id="gGoMFtv6244P30nldpAz-15" value="+ method(type): type" style="text;strokeColor=none;fillColor=none;align=left;verticalAlign=top;spacingLeft=4;spacingRight=4;overflow=hidden;rotatable=0;points=[[0,0.5],[1,0.5]];portConstraint=eastwest;" vertex="1" parent="gGoMFtv6244P30nldpAz-12">
                    <mxGeometry y="168" width="160" height="26" as="geometry"/>
                </mxCell>
                <mxCell id="gGoMFtv6244P30nldpAz-16" value="Classname" style="swimlane;fontStyle=1;align=center;verticalAlign=top;childLayout=stackLayout;horizontal=1;startSize=26;horizontalStack=0;resizeParent=1;resizeParentMax=0;resizeLast=0;collapsible=1;marginBottom=0;fillColor=none;" vertex="1" parent="6Bc9b5hqLwxig0NFzW65-1">
                    <mxGeometry x="320" y="260" width="160" height="86" as="geometry"/>
                </mxCell>
                <mxCell id="gGoMFtv6244P30nldpAz-17" value="+ field: type" style="text;strokeColor=none;fillColor=none;align=left;verticalAlign=top;spacingLeft=4;spacingRight=4;overflow=hidden;rotatable=0;points=[[0,0.5],[1,0.5]];portConstraint=eastwest;" vertex="1" parent="gGoMFtv6244P30nldpAz-16">
                    <mxGeometry y="26" width="160" height="26" as="geometry"/>
                </mxCell>
                <mxCell id="gGoMFtv6244P30nldpAz-18" value="" style="line;strokeWidth=1;fillColor=none;align=left;verticalAlign=middle;spacingTop=-1;spacingLeft=3;spacingRight=3;rotatable=0;labelPosition=right;points=[];portConstraint=eastwest;" vertex="1" parent="gGoMFtv6244P30nldpAz-16">
                    <mxGeometry y="52" width="160" height="8" as="geometry"/>
                </mxCell>
                <mxCell id="gGoMFtv6244P30nldpAz-19" value="+ method(type): type" style="text;strokeColor=none;fillColor=none;align=left;verticalAlign=top;spacingLeft=4;spacingRight=4;overflow=hidden;rotatable=0;points=[[0,0.5],[1,0.5]];portConstraint=eastwest;" vertex="1" parent="gGoMFtv6244P30nldpAz-16">
                    <mxGeometry y="60" width="160" height="26" as="geometry"/>
                </mxCell>
            </root>
        </mxGraphModel>
    </diagram>
</mxfile>